# xmcd CD database file
#
# Track frame offsets:
#	150
#	26602
#	60590
#	95980
#	142155
#	149235
#	183650
#	197252
#	226977
#
# Disc length: 3474 seconds
#
# Revision: 0
# Processed by: cddbd v1.5.1PL2 Copyright (c) Steve Scherf et al.
# Submitted via: CDex 1.51
#
DISCID=8a0d9009
DTITLE=Gregg August - Late August
DYEAR=2005
DGENRE=Jazz
TTITLE0=Sweet Maladie
TTITLE1=Four Two K
TTITLE2=M's Blues
TTITLE3=Treatments in Darkness
TTITLE4=Los Dos Cotos
TTITLE5=Melody in Black and Grey
TTITLE6=Eulogy
TTITLE7=Deceptions
TTITLE8=Work in Progress
EXTD=YEAR: 2005
EXTT0=
EXTT1=
EXTT2=
EXTT3=
EXTT4=
EXTT5=
EXTT6=
EXTT7=
EXTT8=
PLAYORDER=
